HIERARCHY
ROOT Hips
{
	OFFSET 0.00000 0.00000 0.00000
	CHANNELS 6 Xposition Yposition Zposition Zrotation Yrotation Xrotation 
	JOINT LHipJoint
	{
		OFFSET 0 0 0
		CHANNELS 3 Zrotation Yrotation Xrotation
		JOINT LeftUpLeg
		{
			OFFSET 1.54859 -1.61379 0.86856
			CHANNELS 3 Zrotation Yrotation Xrotation
			JOINT LeftLeg
			{
				OFFSET 2.25087 -6.18423 0.00000
				CHANNELS 3 Zrotation Yrotation Xrotation
				JOINT LeftFoot
				{
					OFFSET 2.40328 -6.60297 0.00000
					CHANNELS 3 Zrotation Yrotation Xrotation
					JOINT LeftToeBase
					{
						OFFSET 0.17435 -0.47901 2.02453
						CHANNELS 3 Zrotation Yrotation Xrotation
						End Site
						{
							OFFSET 0.00000 -0.00000 1.04844
						}
					}
				}
			}
		}
	}
	JOINT RHipJoint
	{
		OFFSET 0 0 0
		CHANNELS 3 Zrotation Yrotation Xrotation
		JOINT RightUpLeg
		{
			OFFSET -1.54669 -1.61379 0.86856
			CHANNELS 3 Zrotation Yrotation Xrotation
			JOINT RightLeg
			{
				OFFSET -2.28132 -6.26789 0.00000
				CHANNELS 3 Zrotation Yrotation Xrotation
				JOINT RightFoot
				{
					OFFSET -2.51636 -6.91365 0.00000
					CHANNELS 3 Zrotation Yrotation Xrotation
					JOINT RightToeBase
					{
						OFFSET -0.15124 -0.41552 2.21090
						CHANNELS 3 Zrotation Yrotation Xrotation
						End Site
						{
							OFFSET -0.00000 -0.00000 1.13399
						}
					}
				}
			}
		}
	}
	JOINT LowerBack
	{
		OFFSET 0 0 0
		CHANNELS 3 Zrotation Yrotation Xrotation
		JOINT Spine
		{
			OFFSET -0.04287 2.26161 -0.25690
			CHANNELS 3 Zrotation Yrotation Xrotation
			JOINT Spine1
			{
				OFFSET 0.02248 2.28395 -0.10140
				CHANNELS 3 Zrotation Yrotation Xrotation
				JOINT Neck
				{
					OFFSET 0 0 0
					CHANNELS 3 Zrotation Yrotation Xrotation
					JOINT Neck1
					{
						OFFSET -0.11644 1.38496 0.11345
						CHANNELS 3 Zrotation Yrotation Xrotation
						JOINT Head
						{
							OFFSET 0.29383 1.36600 0.06642
							CHANNELS 3 Zrotation Yrotation Xrotation
							End Site
							{
								OFFSET 0.11075 1.41395 -0.00294
							}
						}
					}
				}
				JOINT LeftShoulder
				{
					OFFSET 0 0 0
					CHANNELS 3 Zrotation Yrotation Xrotation
					JOINT LeftArm
					{
						OFFSET 3.51628 0.59542 -0.30346
						CHANNELS 3 Zrotation Yrotation Xrotation
						JOINT LeftForeArm
						{
							OFFSET 4.76405 -0.00000 0.00000
							CHANNELS 3 Zrotation Yrotation Xrotation
							JOINT LeftHand
							{
								OFFSET 3.13759 -0.00000 -0.00000
								CHANNELS 3 Zrotation Yrotation Xrotation
								JOINT LeftFingerBase
								{
									OFFSET 0 0 0
									CHANNELS 3 Zrotation Yrotation Xrotation
									JOINT LeftHandIndex1
									{
										OFFSET 0.73226 -0.00000 -0.00000
										CHANNELS 3 Zrotation Yrotation Xrotation
										End Site
										{
											OFFSET 0.59037 -0.00000 -0.00000
										}
									}
								}
								JOINT LThumb
								{
									OFFSET 0 0 0
									CHANNELS 3 Zrotation Yrotation Xrotation
									End Site
									{
										OFFSET 0.59938 -0.00000 0.59938
									}
								}
							}
						}
					}
				}
				JOINT RightShoulder
				{
					OFFSET 0 0 0
					CHANNELS 3 Zrotation Yrotation Xrotation
					JOINT RightArm
					{
						OFFSET -3.30990 0.84213 -0.36430
						CHANNELS 3 Zrotation Yrotation Xrotation
						JOINT RightForeArm
						{
							OFFSET -5.10161 -0.00000 -0.00000
							CHANNELS 3 Zrotation Yrotation Xrotation
							JOINT RightHand
							{
								OFFSET -3.23267 -0.00000 -0.00000
								CHANNELS 3 Zrotation Yrotation Xrotation
								JOINT RightFingerBase
								{
									OFFSET 0 0 0
									CHANNELS 3 Zrotation Yrotation Xrotation
									JOINT RightHandIndex1
									{
										OFFSET -0.70200 -0.00000 -0.00000
										CHANNELS 3 Zrotation Yrotation Xrotation
										End Site
										{
											OFFSET -0.56597 -0.00000 -0.00000
										}
									}
								}
								JOINT RThumb
								{
									OFFSET 0 0 0
									CHANNELS 3 Zrotation Yrotation Xrotation
									End Site
									{
										OFFSET -0.57461 -0.00000 0.57461
									}
								}
							}
						}
					}
				}
			}
		}
	}
}
MOTION
Frames: 6
Frame Time: .0083333
-15.2723 13.3548 -0.9871 -367.5290 56.1030 -344.3010 0.0000 0.0000 0.0000 -24.0601 -6.0719 -60.6373 27.8750 18.4430 113.6155 0.2062 -3.9610 -8.1230 2.8199 -10.3976 -30.2741 0.0000 0.0000 0.0000 12.7055 -1.3030 -27.8399 -13.2271 -18.8626 69.8293 -2.3918 5.6284 -28.0638 -7.1720 15.4750 -49.5219 4.6323 2.2844 28.2798 5.1015 4.9765 12.1301 1.4941 2.7014 -2.0677 -16.1152 -7.8517 -2.3513 28.4061 -5.5994 -26.2300 12.9845 -3.2942 -5.4832 0.0000 0.0000 0.0000 -75.2778 13.7655 34.7672 13.2915 -21.7128 -2.5601 -0.0000 -0.0000 17.6810 32.2632 36.8407 20.7321 -7.1250 0.0000 -0.0000 -2.7442 71.5039 -1.7323 0.0000 0.0000 0.0000 35.1107 55.1105 -37.5634 -22.8217 33.8933 -7.0386 0.0000 -0.0000 -29.5515 -17.2176 30.0458 -8.8196 7.1250 -0.0000 -0.0000 7.9744 0.9509 8.1849
-14.9145 13.3322 -0.6732 -368.5240 56.9395 -345.4220 0.0000 0.0000 0.0000 -23.6138 -9.1949 -63.1030 27.2342 18.6960 111.6034 0.1932 -5.4307 -8.1463 1.8355 -8.5146 -24.2884 0.0000 0.0000 0.0000 13.6638 -2.8365 -24.2459 -12.2703 -18.5026 66.8430 -2.1529 7.9909 -26.3751 -7.2251 15.5185 -49.7205 4.8043 2.3688 28.7192 5.1237 5.1745 12.1802 1.3457 2.8065 -2.1993 -15.5416 -7.8165 -1.4577 28.6481 -5.4610 -26.8169 13.0966 -3.3579 -5.8771 -0.0000 0.0000 0.0000 -74.5819 17.4003 35.9823 13.1657 -21.5295 -2.5138 -0.0000 -0.0000 13.9498 32.3422 36.9034 20.8177 -7.1250 0.0000 -0.0000 -2.6776 71.5944 -1.6956 -0.0000 0.0000 0.0000 35.4752 51.9101 -39.0567 -25.7792 36.9898 -8.7545 0.0000 -0.0000 -33.0604 -6.2272 28.9238 -3.0209 7.1250 -0.0000 -0.0000 14.2501 -1.6790 14.2793
-14.5346 13.3176 -0.3421 -369.2290 57.8264 -346.1910 0.0000 0.0000 0.0000 -23.3940 -11.9276 -65.3646 26.4002 18.9882 109.0214 0.1748 -6.5966 -8.1718 2.1990 -9.2688 -26.6398 0.0000 0.0000 0.0000 14.2521 -4.2790 -20.5016 -11.1949 -18.0292 63.4129 -1.7503 11.0790 -23.8381 -7.2579 15.5453 -49.8431 4.8309 2.5133 28.8062 5.0587 5.3762 12.3008 1.2027 2.9179 -2.0934 -14.7077 -7.8454 -0.6652 28.6477 -5.4565 -27.1981 13.0236 -3.4902 -6.1911 0.0000 0.0000 0.0000 -74.0610 20.6783 36.8159 12.9774 -21.2541 -2.4451 -0.0000 -0.0000 10.9157 32.0433 37.2857 20.7655 -7.1250 0.0000 -0.0000 -3.5077 71.8846 -2.2440 0.0000 0.0000 0.0000 35.7425 47.9824 -37.3828 -28.2420 39.3381 -10.2767 0.0000 -0.0000 -32.8322 -6.4142 27.0127 -2.9229 7.1250 -0.0000 -0.0000 14.0972 -3.5127 13.6333
-14.1298 13.3143 0.0052 -369.6670 58.9338 -346.6870 0.0000 0.0000 0.0000 -23.4638 -14.3739 -67.2324 25.3449 19.3008 105.8045 0.1915 -7.2916 -8.6910 1.8905 -8.6343 -24.6578 0.0000 0.0000 0.0000 14.5959 -5.6907 -16.4310 -9.9669 -17.3912 59.3776 -1.1483 14.5227 -20.3101 -7.0881 15.4056 -49.2066 4.5871 2.7596 28.7350 5.4369 5.6640 12.1446 1.6625 3.0388 -2.3015 -14.8306 -7.8439 1.1255 28.4531 -5.6911 -27.5555 13.1167 -3.7048 -6.5988 0.0000 -0.0000 0.0000 -74.4623 24.2770 37.4045 12.7318 -20.8930 -2.3568 -0.0000 -0.0000 8.8272 31.9967 37.6383 20.8840 -7.1250 0.0000 -0.0000 -3.9314 72.2271 -2.5449 0.0000 -0.0000 0.0000 35.3268 42.0216 -33.0055 -30.8758 41.6324 -11.9873 0.0000 -0.0000 -32.9213 -8.9879 24.9758 -3.8208 7.1250 -0.0000 -0.0000 12.5178 -5.2337 11.6105
-13.7238 13.2989 0.3667 -370.0580 60.2165 -347.1230 0.0000 0.0000 0.0000 -23.7052 -16.3782 -69.0016 24.1457 19.5828 102.2028 0.2138 -7.3828 -9.0695 4.5174 -12.8188 -38.6938 0.0000 0.0000 0.0000 14.9281 -6.7467 -11.9689 -8.5978 -16.5418 54.6884 -0.3788 17.8412 -15.8154 -6.8315 15.1883 -48.2340 3.9470 2.7663 28.5150 5.7746 5.5437 12.2454 2.4423 2.9650 -2.1838 -14.5999 -7.8355 1.6272 28.2247 -5.7989 -27.4439 12.9936 -3.7966 -6.6635 0.0000 0.0000 0.0000 -75.7682 27.3819 36.1371 12.4538 -20.4817 -2.2586 -0.0000 -0.0000 7.6907 31.6969 37.8115 20.7362 -7.1250 0.0000 -0.0000 -4.5848 72.3006 -2.9757 0.0000 0.0000 0.0000 35.6577 38.4771 -31.9020 -31.7719 42.3646 -12.5868 0.0000 -0.0000 -26.2497 -9.7158 25.1534 -4.1624 7.1250 -0.0000 -0.0000 12.0823 -4.9802 11.2462
-13.3196 13.2682 0.7419 -370.5470 61.4741 -347.6230 0.0000 0.0000 0.0000 -24.0530 -17.7537 -70.7273 22.8543 19.8035 98.3718 0.1958 -7.5429 -8.8510 1.0100 -6.3945 -17.9335 0.0000 0.0000 0.0000 15.4472 -7.5096 -7.3367 -7.1520 -15.4586 49.4469 0.4967 21.2490 -10.7408 -6.6455 15.0260 -47.5206 3.6874 2.5740 28.2860 5.4990 5.2212 12.4253 2.4014 2.8220 -1.8655 -13.5003 -7.8494 1.5759 28.3433 -5.6959 -27.1593 12.7960 -3.8542 -6.6407 -0.0000 0.0000 0.0000 -76.4859 30.0847 34.4239 12.2188 -20.1320 -2.1770 -0.0000 -0.0000 6.7287 31.1123 38.5199 20.5998 -7.1250 0.0000 -0.0000 -6.2946 72.8110 -4.1578 -0.0000 0.0000 0.0000 37.5824 35.6349 -31.4585 -32.9109 43.2615 -13.3610 0.0000 -0.0000 -23.5653 -8.8198 25.4459 -3.8141 7.1250 -0.0000 -0.0000 12.6311 -4.7909 11.8291
